<svg width="5406" height="907" viewBox="0 0 5406 907" fill="none" xmlns="http://www.w3.org/2000/svg">
<path d="M1250.9 711.2C1184.17 711.2 1134 687.167 1100.4 639.1C1067.27 590.567 1050.7 517.533 1050.7 420C1050.7 322.467 1067.73 249.667 1101.8 201.6C1136.33 153.067 1188.13 128.8 1257.2 128.8C1294.53 128.8 1326.73 136.733 1353.8 152.6C1380.87 168.467 1402.1 191.8 1417.5 222.6C1433.37 252.933 1442.7 290.033 1445.5 333.9H1372C1365.47 291.433 1352.4 259.233 1332.8 237.3C1313.67 214.9 1288.47 203.7 1257.2 203.7C1213.8 203.7 1181.83 221.2 1161.3 256.2C1140.77 291.2 1130.5 345.8 1130.5 420C1130.5 494.2 1140.07 548.8 1159.2 583.8C1178.8 618.8 1209.37 636.3 1250.9 636.3C1280.77 636.3 1304.8 626.033 1323 605.5C1341.2 584.967 1353.33 555.1 1359.4 515.9H1432.9C1430.1 557.433 1421.23 592.9 1406.3 622.3C1391.37 651.233 1370.6 673.4 1344 688.8C1317.87 703.733 1286.83 711.2 1250.9 711.2ZM1550.64 280H1714.44V310.8H1735.44C1743.84 297.267 1755.27 287 1769.74 280C1784.2 272.533 1800.77 268.8 1819.44 268.8C1853.04 268.8 1879.64 280.7 1899.24 304.5C1918.84 327.833 1928.64 360.033 1928.64 401.1V462H1848.84V412.3C1848.84 365.167 1829.7 341.6 1791.44 341.6C1767.17 341.6 1748.97 352.567 1736.84 374.5C1725.17 395.967 1719.34 428.167 1719.34 471.1V627.9H1849.54V700H1563.24V627.9H1642.34V352.1H1550.64V280ZM2099.57 447.3H2352.27L2326.37 483.7C2326.37 436.567 2317.97 400.633 2301.17 375.9C2284.37 351.167 2259.87 338.8 2227.67 338.8C2192.67 338.8 2165.37 351.867 2145.77 378C2126.17 403.667 2116.37 439.833 2116.37 486.5C2116.37 536.433 2126.17 574.7 2145.77 601.3C2165.37 627.9 2193.37 641.2 2229.77 641.2C2253.57 641.2 2274.34 635.367 2292.07 623.7C2309.81 611.567 2324.74 594.067 2336.87 571.2H2408.97C2401.97 600.133 2390.07 625.1 2373.27 646.1C2356.94 667.1 2336.41 683.2 2311.67 694.4C2287.41 705.6 2260.11 711.2 2229.77 711.2C2190.57 711.2 2156.74 702.333 2128.27 684.6C2100.27 666.867 2078.81 641.2 2063.87 607.6C2048.94 574 2041.47 533.633 2041.47 486.5C2041.47 441.7 2048.94 403.2 2063.87 371C2079.27 338.333 2100.97 313.133 2128.97 295.4C2156.97 277.667 2189.87 268.8 2227.67 268.8C2263.61 268.8 2294.17 277.2 2319.37 294C2344.57 310.8 2363.94 335.3 2377.47 367.5C2391.01 399.233 2397.77 437.733 2397.77 483C2397.77 488.133 2397.54 493.5 2397.07 499.1C2397.07 504.7 2396.84 510.067 2396.37 515.2H2099.57V447.3ZM2680.01 711.2C2645.01 711.2 2614.68 702.333 2589.01 684.6C2563.81 666.4 2543.98 640.733 2529.51 607.6C2515.51 574.467 2508.51 535.267 2508.51 490C2508.51 444.733 2515.51 405.533 2529.51 372.4C2543.98 339.267 2563.81 313.833 2589.01 296.1C2614.68 277.9 2645.01 268.8 2680.01 268.8C2702.88 268.8 2723.64 273.233 2742.31 282.1C2760.98 290.967 2774.74 303.1 2783.61 318.5H2804.61V106.4H2881.61V700H2804.61V661.5H2783.61C2774.74 676.433 2760.98 688.567 2742.31 697.9C2723.64 706.767 2702.88 711.2 2680.01 711.2ZM2696.11 639.1C2731.58 639.1 2758.88 626.033 2778.01 599.9C2797.61 573.767 2807.41 537.133 2807.41 490C2807.41 442.867 2797.61 406.233 2778.01 380.1C2758.88 353.967 2731.58 340.9 2696.11 340.9C2661.11 340.9 2633.81 353.967 2614.21 380.1C2595.08 406.233 2585.51 442.867 2585.51 490C2585.51 537.133 2595.08 573.767 2614.21 599.9C2633.81 626.033 2661.11 639.1 2696.11 639.1ZM3090.35 557.2C3098.28 582.867 3111.81 602.467 3130.95 616C3150.08 629.533 3174.58 636.3 3204.45 636.3C3237.11 636.3 3262.78 628.133 3281.45 611.8C3300.11 595.467 3309.45 572.833 3309.45 543.9C3309.45 522.9 3302.45 505.633 3288.45 492.1C3274.91 478.1 3255.31 469.233 3229.65 465.5L3168.05 456.4C3119.51 448 3082.88 430.5 3058.15 403.9C3033.41 377.3 3021.05 341.6 3021.05 296.8C3021.05 262.733 3028.75 233.333 3044.15 208.6C3060.01 183.4 3081.95 163.8 3109.95 149.8C3138.41 135.8 3171.31 128.8 3208.65 128.8C3245.98 128.8 3278.65 135.567 3306.65 149.1C3334.65 162.633 3356.58 182 3372.45 207.2C3388.78 231.933 3398.11 261.8 3400.45 296.8H3324.85C3317.38 266.933 3303.85 244.067 3284.25 228.2C3264.65 211.867 3239.45 203.7 3208.65 203.7C3174.58 203.7 3147.75 212.1 3128.15 228.9C3109.01 245.233 3099.45 267.867 3099.45 296.8C3099.45 318.267 3106.21 335.767 3119.75 349.3C3133.75 362.833 3153.35 371.7 3178.55 375.9L3240.15 385C3289.15 392.933 3326.01 410.433 3350.75 437.5C3375.48 464.1 3387.85 499.567 3387.85 543.9C3387.85 577.967 3380.15 607.6 3364.75 632.8C3349.81 657.533 3328.58 676.9 3301.05 690.9C3273.51 704.433 3241.31 711.2 3204.45 711.2C3167.11 711.2 3134.45 705.133 3106.45 693C3078.91 680.4 3056.98 662.667 3040.65 639.8C3024.78 616.467 3015.91 588.933 3014.05 557.2H3090.35ZM3670.78 170.8V280H3859.78V352.1H3670.78V562.1C3670.78 586.833 3675.92 605.967 3686.18 619.5C3696.45 632.567 3711.38 639.1 3730.98 639.1C3751.52 639.1 3767.38 632.1 3778.58 618.1C3790.25 603.633 3798.88 581.933 3804.48 553H3872.38C3870.05 604.333 3856.52 643.533 3831.78 670.6C3807.05 697.667 3772.52 711.2 3728.18 711.2C3685.25 711.2 3652.12 698.367 3628.78 672.7C3605.45 647.033 3593.78 611.1 3593.78 564.9V352.1H3501.38V280H3593.78V170.8H3670.78ZM4275.02 437.5V505.4L4149.02 525C4129.42 528.267 4114.72 535.033 4104.92 545.3C4095.59 555.567 4090.92 569.1 4090.92 585.9C4090.92 601.767 4096.75 614.6 4108.42 624.4C4120.55 634.2 4135.95 639.1 4154.62 639.1C4175.15 639.1 4193.82 634.2 4210.62 624.4C4227.89 614.6 4241.65 601.533 4251.92 585.2C4262.19 568.4 4267.32 549.967 4267.32 529.9V427C4267.32 399.933 4259.15 378.7 4242.82 363.3C4226.49 347.9 4204.09 340.2 4175.62 340.2C4155.55 340.2 4137.59 343.467 4121.72 350C4105.85 356.533 4092.79 366.1 4082.52 378.7C4072.72 391.3 4065.95 406.7 4062.22 424.9H3988.72C3991.05 392.7 4000.15 364.933 4016.02 341.6C4032.35 318.267 4054.29 300.3 4081.82 287.7C4109.35 275.1 4141.32 268.8 4177.72 268.8C4229.99 268.8 4270.35 282.1 4298.82 308.7C4327.75 335.3 4342.22 373.1 4342.22 422.1V700H4267.32V661.5H4246.32C4235.12 677.367 4220.42 689.5 4202.22 697.9C4184.49 706.3 4162.55 710.5 4136.42 710.5C4110.75 710.5 4088.35 705.6 4069.22 695.8C4050.55 685.533 4035.85 671.3 4025.12 653.1C4014.85 634.9 4009.72 613.667 4009.72 589.4C4009.72 554.4 4020.92 525.7 4043.32 503.3C4065.72 480.433 4097.69 465.733 4139.22 459.2L4275.02 437.5ZM4679.76 711.2C4641.49 711.2 4608.36 702.333 4580.36 684.6C4552.36 666.867 4530.66 641.667 4515.26 609C4499.86 575.867 4492.16 536.9 4492.16 492.1C4492.16 446.367 4500.09 406.933 4515.96 373.8C4531.82 340.2 4554.22 314.3 4583.16 296.1C4612.56 277.9 4647.09 268.8 4686.76 268.8C4721.29 268.8 4751.62 276.033 4777.76 290.5C4803.89 304.5 4824.42 324.567 4839.36 350.7C4854.29 376.367 4862.46 406.933 4863.86 442.4H4793.16C4787.09 410.2 4774.49 385.233 4755.36 367.5C4736.69 349.767 4712.89 340.9 4683.96 340.9C4647.09 340.9 4618.62 354.2 4598.56 380.8C4578.49 407.4 4568.46 444.5 4568.46 492.1C4568.46 538.3 4578.26 574.467 4597.86 600.6C4617.46 626.267 4644.76 639.1 4679.76 639.1C4705.89 639.1 4727.82 631.4 4745.56 616C4763.76 600.133 4776.36 578.2 4783.36 550.2H4854.06C4851.72 582.867 4842.86 611.333 4827.46 635.6C4812.06 659.4 4791.52 678.067 4765.86 691.6C4740.66 704.667 4711.96 711.2 4679.76 711.2ZM5260.89 700L5080.99 495.6L5267.19 280H5364.49L5178.99 492.8L5362.39 700H5260.89ZM5027.09 700V106.4H5104.09V700H5027.09Z" fill="black"/>
<path d="M527.688 809.807L527.648 809.756L527.607 809.706C493.011 766.735 473 713.844 473 659.418V559.748C473 552.542 475.709 544.425 480.528 537.187C485.341 529.959 491.739 524.387 498.208 521.648L624.472 469.806C650.706 459.398 679.84 459.398 706.074 469.806L751.475 488.444L751.484 488.447L751.492 488.451L832.8 521.651C839.266 524.392 845.661 529.962 850.472 537.187C855.291 544.425 858 552.542 858 559.748V659.418C858 765.757 780.33 866.541 674.616 895.943C668.437 897.369 661.986 897.331 656.428 895.956C605.023 881.973 559.592 850.503 527.688 809.807Z" fill="#292D32" stroke="white" stroke-width="20"/>
<path d="M266.667 440H300M533.333 440H400" stroke="#1C274C" stroke-width="50" stroke-linecap="round"/>
<path d="M533.333 306.667H500M400 306.667H266.667" stroke="#1C274C" stroke-width="50" stroke-linecap="round"/>
<path d="M266.667 573.333H433.333" stroke="#1C274C" stroke-width="50" stroke-linecap="round"/>
<path d="M100 506.666V373.333C100 247.625 100 184.772 139.052 145.719C178.105 106.667 240.959 106.667 366.667 106.667H433.333C559.04 106.667 621.897 106.667 660.947 145.719C682.72 167.492 692.353 196.663 696.617 240M700 373.333V506.666C700 632.373 700 695.23 660.947 734.28C621.897 773.333 559.04 773.333 433.333 773.333H366.667C240.959 773.333 178.105 773.333 139.052 734.28C117.28 712.506 107.646 683.336 103.383 640" stroke="#1C274C" stroke-width="50" stroke-linecap="round"/>
<path d="M783 604.464L755.429 578L637.626 691.03L588.571 643.988L561 670.451L637.626 744L783 604.464Z" fill="white"/>
</svg>
